<?xml version="1.0" encoding="UTF-8"?>
<svg id="Layer_2" data-name="Layer 2" xmlns="http://www.w3.org/2000/svg" viewBox="0 0 243.72 38.15">
    <defs>
        <style>
            .cls-1 {
            fill: #ff8c00;
            }

            .cls-1, .cls-2 {
            fill-rule: evenodd;
            stroke-width: 0px;
            }

            .cls-2 {
            fill: #3c1e6e;
            }
        </style>
    </defs>
    <g id="Layer_1-2" data-name="Layer 1">
        <g>
            <path class="cls-1"
                  d="m190.58,37.73c11.13-2.31,20.72-13.09,21.09-15.79.45-3.21-.81-7.77-2.66-10.47.14.26.32.63.39.92,1.8,7.36-24.04,22.76-28.01,20.08,1.56,1.99,7.1,5.69,9.19,5.26m13.37-30.46c3.13,11.04-25.88,19.42-26.55,17.66-.71-1.95-.61-5.5-.17-7.51.04,2.1,12.77-2.88,18.23-8.79,2.04-2.21,2.95-4.9-1.2-5.22,1.04-.04,9.04.61,9.69,3.86Zm-13.62-5.01l3.83-2.22c.06-.04.13-.05.21-.04.07.02.13.06.17.12l1.31,2.19c.04.07.04.15-.01.22-.05.07-.13.1-.22.1l-1.24.07c-.08,0-.16.03-.21.1-1.15,1.57-11.23,9.34-13.66,7.6-.26-.18,1.13-1.56,1.35-1.79,1.64-1.61,3.25-2.76,5.3-3.71-1.87.88-1.58,1.12-1.54,1.14,1.36.84,5.99-3.02,5.86-3.41,0-.01-.01-.02-.02-.02l-.98.04c-.11,0-.2-.06-.23-.16-.03-.09,0-.19.09-.25Zm18.32,28.38c-.59.8-1.09,1.5-2.04,2.46-3.11,2.99-6.73,4.7-11.03,5.05,2.91-.35,11.65-4.7,14.26-9.52-.34.61-.79,1.43-1.19,2.01Z"/>
            <path class="cls-2"
                  d="m196.68,4.58c-1.61.07-3.23.31-4.8.65.09-.07.18-.15.28-.22.48-.39.95-.78,1.4-1.2.05-.05.11-.1.16-.15.19,0,.34-.01.53,0,.75.06,1.93.24,2.44.92m-18.53,11.41c3.16-3.78,9.84-6.17,14.51-7.07.85-.16,1.7-.3,2.56-.4-1.64,1.76-3.76,3.29-5.8,4.54-2.52,1.55-5.43,3-8.25,3.93-.82.27-1.76.55-2.62.64-.2.02-.94.08-1.06-.14-.27-.46.39-1.18.67-1.51Zm29.99.28c-2.3-.76-5.07-.74-7.48-.49,1.95-1.76,3.45-3.83,3.71-6.13.02-.21.04-.42.04-.63,1.12.31,2.48.8,3.52,1.5.74.59,1.06,1.29,1.22,1.91.3,1.22-.25,2.6-1.01,3.83Zm-26.63,14.4c.74-1.15,2.43-2.14,3.18-2.59,2.7-1.63,5.92-2.92,8.92-3.85,2.67-.83,5.67-1.53,8.5-1.65-1.44,1.16-2.95,2.24-4.42,3.22-3.08,2.05-6.54,4.02-9.97,5.41-1.24.5-4.93,1.9-6.2,1.05-.06-.04-.48-.34-.3-.95h0c.08-.24.19-.47.29-.63Zm13.88,6.33c1.65-1.21,6.38-2.61,7.7-2.4-1.22.76-2.49,1.44-3.78,2.03-1.07.48-2.6,1.12-3.77,1.27-.08,0-.77.04-.56-.51.1-.13.24-.25.41-.38Zm14.36-11.37c.25.36.39.7.46,1.05-.2,1-.55,1.75-.59,1.82-.83,1.51-2.14,2.85-3.54,3.98.33-.99-.54-1.47-1.52-1.69.75-.62,1.47-1.26,2.17-1.92,1.06-1.01,2.1-2.09,3.03-3.24Zm-21.28-21.24c.36-.12.79-.26,1.3-.39-.33.26-.66.5-1.01.73-.47.32-1.94,1.25-2.74,1.19-.16-.01-.07-.07-.04-.1.49-.39,1.84-1.2,2.49-1.43Z"/>
            <path class="cls-2"
                  d="m11.93,34.92c8.37,0,12.43-4.19,12.43-9.08,0-10.76-17.04-7.03-17.04-12.43,0-1.85,1.55-3.36,5.57-3.36,2.6,0,5.4.75,8.12,2.3l2.09-5.15c-2.72-1.72-6.49-2.6-10.17-2.6C4.61,4.61.59,8.76.59,13.74c0,10.88,17.04,7.12,17.04,12.6,0,1.79-1.63,3.13-5.65,3.13-3.52,0-7.2-1.26-9.67-3.05l-2.3,5.1c2.6,2.01,7.28,3.39,11.93,3.39m30.1,0c8.33,0,13.27-4.77,13.27-13.4V5.11h-6.7v16.16c0,5.57-2.39,7.87-6.53,7.87s-6.53-2.3-6.53-7.87V5.11h-6.78v16.41c0,8.62,4.94,13.4,13.27,13.4ZM74.69,5.11h-12.69v29.31h6.78v-7.39h5.9c7.83,0,12.73-4.41,12.73-10.94s-4.9-10.98-12.73-10.98Zm-.38,16.39h-5.53v-10.87h5.53c4.14,0,6.24,2.23,6.24,5.45s-2.09,5.41-6.24,5.41Zm24.66,7.47v-6.78h13.61v-5.27h-13.61v-6.36h15.41v-5.44h-22.15v29.31h22.69v-5.44h-15.95Zm47.31,5.44l-6.57-8.73c3.81-1.63,6.03-5.2,6.03-9.6,0-6.57-4.9-10.98-12.73-10.98h-12.69v29.31h6.78v-7.47h6.24l5.65,7.47h7.28Zm-7.41-18.33c0,3.18-2.09,5.45-6.24,5.45h-5.53v-10.91h5.53c4.14,0,6.24,2.23,6.24,5.45Zm98.16-10.98v17.79l-14.57-17.79h-5.61v29.31h6.7v-17.79l14.61,17.79h5.57V5.11h-6.7Zm-63.79,5.44v-5.44h-22.15v29.31h6.78v-10.68h13.56v-5.44h-13.56v-7.75h15.36Z"/>
        </g>
    </g>
</svg>